<mxfile host="app.diagrams.net" modified="2023-02-05T15:50:48.700Z" agent="5.0 (Windows NT 10.0; Win64; x64) AppleWebKit/537.36 (KHTML, like Gecko) Chrome/109.0.0.0 Safari/537.36 Edg/109.0.1518.78" etag="Ej01D8XRfhsMAprfeFnZ" version="20.8.16" type="github">
  <diagram id="UV3ZCmatX03Z8bhax8fV" name="Page-1">
    <mxGraphModel dx="1627" dy="756" grid="1" gridSize="10" guides="1" tooltips="1" connect="1" arrows="1" fold="1" page="1" pageScale="1" pageWidth="827" pageHeight="1169" math="0" shadow="0">
      <root>
        <mxCell id="0" />
        <mxCell id="1" parent="0" />
        <mxCell id="J2YRhRowR8hO2LU_zufJ-102" value="" style="rounded=0;whiteSpace=wrap;html=1;" vertex="1" parent="1">
          <mxGeometry x="827" y="930" width="233" height="60" as="geometry" />
        </mxCell>
        <mxCell id="J2YRhRowR8hO2LU_zufJ-49" value="" style="rounded=0;whiteSpace=wrap;html=1;" vertex="1" parent="1">
          <mxGeometry x="1490" y="12" width="720" height="888" as="geometry" />
        </mxCell>
        <mxCell id="J2YRhRowR8hO2LU_zufJ-17" value="" style="rounded=0;whiteSpace=wrap;html=1;" vertex="1" parent="1">
          <mxGeometry x="850" y="8" width="460" height="712" as="geometry" />
        </mxCell>
        <mxCell id="59p0AvyfdVepsQXnpc3s-46" value="" style="rounded=0;whiteSpace=wrap;html=1;" parent="1" vertex="1">
          <mxGeometry x="395" y="294" width="335" height="245" as="geometry" />
        </mxCell>
        <mxCell id="59p0AvyfdVepsQXnpc3s-80" value="" style="rounded=0;whiteSpace=wrap;html=1;" parent="1" vertex="1">
          <mxGeometry x="62" y="30" width="357" height="45" as="geometry" />
        </mxCell>
        <mxCell id="59p0AvyfdVepsQXnpc3s-81" value="0x12" style="text;html=1;align=center;verticalAlign=middle;resizable=0;points=[];autosize=1;strokeColor=none;fillColor=none;" parent="1" vertex="1">
          <mxGeometry x="73" y="39.5" width="44" height="26" as="geometry" />
        </mxCell>
        <mxCell id="59p0AvyfdVepsQXnpc3s-82" value="0x12" style="text;html=1;align=center;verticalAlign=middle;resizable=0;points=[];autosize=1;strokeColor=none;fillColor=none;" parent="1" vertex="1">
          <mxGeometry x="122" y="39.5" width="44" height="26" as="geometry" />
        </mxCell>
        <mxCell id="59p0AvyfdVepsQXnpc3s-83" value="0x12" style="text;html=1;align=center;verticalAlign=middle;resizable=0;points=[];autosize=1;strokeColor=none;fillColor=none;" parent="1" vertex="1">
          <mxGeometry x="168" y="42" width="44" height="26" as="geometry" />
        </mxCell>
        <mxCell id="59p0AvyfdVepsQXnpc3s-84" value="0x12" style="text;html=1;align=center;verticalAlign=middle;resizable=0;points=[];autosize=1;strokeColor=none;fillColor=none;" parent="1" vertex="1">
          <mxGeometry x="217" y="39.5" width="44" height="26" as="geometry" />
        </mxCell>
        <mxCell id="59p0AvyfdVepsQXnpc3s-85" value="0x12" style="text;html=1;align=center;verticalAlign=middle;resizable=0;points=[];autosize=1;strokeColor=none;fillColor=none;" parent="1" vertex="1">
          <mxGeometry x="254" y="42" width="44" height="26" as="geometry" />
        </mxCell>
        <mxCell id="59p0AvyfdVepsQXnpc3s-86" value="0x12" style="text;html=1;align=center;verticalAlign=middle;resizable=0;points=[];autosize=1;strokeColor=none;fillColor=none;" parent="1" vertex="1">
          <mxGeometry x="298" y="42" width="44" height="26" as="geometry" />
        </mxCell>
        <mxCell id="59p0AvyfdVepsQXnpc3s-87" value="0x12" style="text;html=1;align=center;verticalAlign=middle;resizable=0;points=[];autosize=1;strokeColor=none;fillColor=none;" parent="1" vertex="1">
          <mxGeometry x="337" y="42" width="44" height="26" as="geometry" />
        </mxCell>
        <mxCell id="59p0AvyfdVepsQXnpc3s-88" value="0x12" style="text;html=1;align=center;verticalAlign=middle;resizable=0;points=[];autosize=1;strokeColor=none;fillColor=none;" parent="1" vertex="1">
          <mxGeometry x="376" y="42" width="44" height="26" as="geometry" />
        </mxCell>
        <mxCell id="59p0AvyfdVepsQXnpc3s-89" value="" style="rounded=0;whiteSpace=wrap;html=1;" parent="1" vertex="1">
          <mxGeometry x="60" y="80" width="357" height="45" as="geometry" />
        </mxCell>
        <mxCell id="59p0AvyfdVepsQXnpc3s-90" value="0x12" style="text;html=1;align=center;verticalAlign=middle;resizable=0;points=[];autosize=1;strokeColor=none;fillColor=none;" parent="1" vertex="1">
          <mxGeometry x="71" y="89.5" width="44" height="26" as="geometry" />
        </mxCell>
        <mxCell id="59p0AvyfdVepsQXnpc3s-91" value="0x12" style="text;html=1;align=center;verticalAlign=middle;resizable=0;points=[];autosize=1;strokeColor=none;fillColor=none;" parent="1" vertex="1">
          <mxGeometry x="120" y="89.5" width="44" height="26" as="geometry" />
        </mxCell>
        <mxCell id="59p0AvyfdVepsQXnpc3s-92" value="0x12" style="text;html=1;align=center;verticalAlign=middle;resizable=0;points=[];autosize=1;strokeColor=none;fillColor=none;" parent="1" vertex="1">
          <mxGeometry x="166" y="92" width="44" height="26" as="geometry" />
        </mxCell>
        <mxCell id="59p0AvyfdVepsQXnpc3s-93" value="0x12" style="text;html=1;align=center;verticalAlign=middle;resizable=0;points=[];autosize=1;strokeColor=none;fillColor=none;" parent="1" vertex="1">
          <mxGeometry x="215" y="89.5" width="44" height="26" as="geometry" />
        </mxCell>
        <mxCell id="59p0AvyfdVepsQXnpc3s-94" value="0x12" style="text;html=1;align=center;verticalAlign=middle;resizable=0;points=[];autosize=1;strokeColor=none;fillColor=none;" parent="1" vertex="1">
          <mxGeometry x="252" y="92" width="44" height="26" as="geometry" />
        </mxCell>
        <mxCell id="59p0AvyfdVepsQXnpc3s-95" value="0x12" style="text;html=1;align=center;verticalAlign=middle;resizable=0;points=[];autosize=1;strokeColor=none;fillColor=none;" parent="1" vertex="1">
          <mxGeometry x="296" y="92" width="44" height="26" as="geometry" />
        </mxCell>
        <mxCell id="59p0AvyfdVepsQXnpc3s-96" value="0x12" style="text;html=1;align=center;verticalAlign=middle;resizable=0;points=[];autosize=1;strokeColor=none;fillColor=none;" parent="1" vertex="1">
          <mxGeometry x="335" y="92" width="44" height="26" as="geometry" />
        </mxCell>
        <mxCell id="59p0AvyfdVepsQXnpc3s-97" value="0x12" style="text;html=1;align=center;verticalAlign=middle;resizable=0;points=[];autosize=1;strokeColor=none;fillColor=none;" parent="1" vertex="1">
          <mxGeometry x="374" y="92" width="44" height="26" as="geometry" />
        </mxCell>
        <mxCell id="59p0AvyfdVepsQXnpc3s-98" value="" style="rounded=0;whiteSpace=wrap;html=1;" parent="1" vertex="1">
          <mxGeometry x="60" y="135" width="359" height="45" as="geometry" />
        </mxCell>
        <mxCell id="59p0AvyfdVepsQXnpc3s-99" value="0x12" style="text;html=1;align=center;verticalAlign=middle;resizable=0;points=[];autosize=1;strokeColor=none;fillColor=none;" parent="1" vertex="1">
          <mxGeometry x="71" y="144.5" width="44" height="26" as="geometry" />
        </mxCell>
        <mxCell id="59p0AvyfdVepsQXnpc3s-100" value="0x12" style="text;html=1;align=center;verticalAlign=middle;resizable=0;points=[];autosize=1;strokeColor=none;fillColor=none;" parent="1" vertex="1">
          <mxGeometry x="120" y="144.5" width="44" height="26" as="geometry" />
        </mxCell>
        <mxCell id="59p0AvyfdVepsQXnpc3s-101" value="0x12" style="text;html=1;align=center;verticalAlign=middle;resizable=0;points=[];autosize=1;strokeColor=none;fillColor=none;" parent="1" vertex="1">
          <mxGeometry x="166" y="147" width="44" height="26" as="geometry" />
        </mxCell>
        <mxCell id="59p0AvyfdVepsQXnpc3s-102" value="0x12" style="text;html=1;align=center;verticalAlign=middle;resizable=0;points=[];autosize=1;strokeColor=none;fillColor=none;" parent="1" vertex="1">
          <mxGeometry x="215" y="144.5" width="44" height="26" as="geometry" />
        </mxCell>
        <mxCell id="59p0AvyfdVepsQXnpc3s-103" value="0x12" style="text;html=1;align=center;verticalAlign=middle;resizable=0;points=[];autosize=1;strokeColor=none;fillColor=none;" parent="1" vertex="1">
          <mxGeometry x="252" y="147" width="44" height="26" as="geometry" />
        </mxCell>
        <mxCell id="59p0AvyfdVepsQXnpc3s-104" value="0x12" style="text;html=1;align=center;verticalAlign=middle;resizable=0;points=[];autosize=1;strokeColor=none;fillColor=none;" parent="1" vertex="1">
          <mxGeometry x="296" y="147" width="44" height="26" as="geometry" />
        </mxCell>
        <mxCell id="59p0AvyfdVepsQXnpc3s-105" value="0x12" style="text;html=1;align=center;verticalAlign=middle;resizable=0;points=[];autosize=1;strokeColor=none;fillColor=none;" parent="1" vertex="1">
          <mxGeometry x="335" y="147" width="44" height="26" as="geometry" />
        </mxCell>
        <mxCell id="59p0AvyfdVepsQXnpc3s-106" value="0x12" style="text;html=1;align=center;verticalAlign=middle;resizable=0;points=[];autosize=1;strokeColor=none;fillColor=none;" parent="1" vertex="1">
          <mxGeometry x="374" y="147" width="44" height="26" as="geometry" />
        </mxCell>
        <mxCell id="59p0AvyfdVepsQXnpc3s-107" value="" style="rounded=0;whiteSpace=wrap;html=1;" parent="1" vertex="1">
          <mxGeometry x="58" y="185" width="360" height="45" as="geometry" />
        </mxCell>
        <mxCell id="59p0AvyfdVepsQXnpc3s-108" value="0x12" style="text;html=1;align=center;verticalAlign=middle;resizable=0;points=[];autosize=1;strokeColor=none;fillColor=none;" parent="1" vertex="1">
          <mxGeometry x="69" y="194.5" width="44" height="26" as="geometry" />
        </mxCell>
        <mxCell id="59p0AvyfdVepsQXnpc3s-109" value="0x12" style="text;html=1;align=center;verticalAlign=middle;resizable=0;points=[];autosize=1;strokeColor=none;fillColor=none;" parent="1" vertex="1">
          <mxGeometry x="118" y="194.5" width="44" height="26" as="geometry" />
        </mxCell>
        <mxCell id="59p0AvyfdVepsQXnpc3s-110" value="0x12" style="text;html=1;align=center;verticalAlign=middle;resizable=0;points=[];autosize=1;strokeColor=none;fillColor=none;" parent="1" vertex="1">
          <mxGeometry x="164" y="197" width="44" height="26" as="geometry" />
        </mxCell>
        <mxCell id="59p0AvyfdVepsQXnpc3s-111" value="0x12" style="text;html=1;align=center;verticalAlign=middle;resizable=0;points=[];autosize=1;strokeColor=none;fillColor=none;" parent="1" vertex="1">
          <mxGeometry x="213" y="194.5" width="44" height="26" as="geometry" />
        </mxCell>
        <mxCell id="59p0AvyfdVepsQXnpc3s-112" value="0x12" style="text;html=1;align=center;verticalAlign=middle;resizable=0;points=[];autosize=1;strokeColor=none;fillColor=none;" parent="1" vertex="1">
          <mxGeometry x="250" y="197" width="44" height="26" as="geometry" />
        </mxCell>
        <mxCell id="59p0AvyfdVepsQXnpc3s-113" value="0x12" style="text;html=1;align=center;verticalAlign=middle;resizable=0;points=[];autosize=1;strokeColor=none;fillColor=none;" parent="1" vertex="1">
          <mxGeometry x="294" y="197" width="44" height="26" as="geometry" />
        </mxCell>
        <mxCell id="59p0AvyfdVepsQXnpc3s-114" value="0x12" style="text;html=1;align=center;verticalAlign=middle;resizable=0;points=[];autosize=1;strokeColor=none;fillColor=none;" parent="1" vertex="1">
          <mxGeometry x="333" y="197" width="44" height="26" as="geometry" />
        </mxCell>
        <mxCell id="59p0AvyfdVepsQXnpc3s-115" value="0x12" style="text;html=1;align=center;verticalAlign=middle;resizable=0;points=[];autosize=1;strokeColor=none;fillColor=none;" parent="1" vertex="1">
          <mxGeometry x="372" y="197" width="44" height="26" as="geometry" />
        </mxCell>
        <mxCell id="59p0AvyfdVepsQXnpc3s-116" value="" style="rounded=0;whiteSpace=wrap;html=1;" parent="1" vertex="1">
          <mxGeometry x="58" y="238" width="356" height="45" as="geometry" />
        </mxCell>
        <mxCell id="59p0AvyfdVepsQXnpc3s-117" value="0x12" style="text;html=1;align=center;verticalAlign=middle;resizable=0;points=[];autosize=1;strokeColor=none;fillColor=none;" parent="1" vertex="1">
          <mxGeometry x="69" y="247.5" width="44" height="26" as="geometry" />
        </mxCell>
        <mxCell id="59p0AvyfdVepsQXnpc3s-118" value="0x12" style="text;html=1;align=center;verticalAlign=middle;resizable=0;points=[];autosize=1;strokeColor=none;fillColor=none;" parent="1" vertex="1">
          <mxGeometry x="118" y="247.5" width="44" height="26" as="geometry" />
        </mxCell>
        <mxCell id="59p0AvyfdVepsQXnpc3s-119" value="0x12" style="text;html=1;align=center;verticalAlign=middle;resizable=0;points=[];autosize=1;strokeColor=none;fillColor=none;" parent="1" vertex="1">
          <mxGeometry x="164" y="250" width="44" height="26" as="geometry" />
        </mxCell>
        <mxCell id="59p0AvyfdVepsQXnpc3s-120" value="0x12" style="text;html=1;align=center;verticalAlign=middle;resizable=0;points=[];autosize=1;strokeColor=none;fillColor=none;" parent="1" vertex="1">
          <mxGeometry x="213" y="247.5" width="44" height="26" as="geometry" />
        </mxCell>
        <mxCell id="59p0AvyfdVepsQXnpc3s-121" value="0x12" style="text;html=1;align=center;verticalAlign=middle;resizable=0;points=[];autosize=1;strokeColor=none;fillColor=none;" parent="1" vertex="1">
          <mxGeometry x="250" y="250" width="44" height="26" as="geometry" />
        </mxCell>
        <mxCell id="59p0AvyfdVepsQXnpc3s-122" value="0x12" style="text;html=1;align=center;verticalAlign=middle;resizable=0;points=[];autosize=1;strokeColor=none;fillColor=none;" parent="1" vertex="1">
          <mxGeometry x="294" y="250" width="44" height="26" as="geometry" />
        </mxCell>
        <mxCell id="59p0AvyfdVepsQXnpc3s-123" value="0x12" style="text;html=1;align=center;verticalAlign=middle;resizable=0;points=[];autosize=1;strokeColor=none;fillColor=none;" parent="1" vertex="1">
          <mxGeometry x="333" y="250" width="44" height="26" as="geometry" />
        </mxCell>
        <mxCell id="59p0AvyfdVepsQXnpc3s-124" value="0x12" style="text;html=1;align=center;verticalAlign=middle;resizable=0;points=[];autosize=1;strokeColor=none;fillColor=none;" parent="1" vertex="1">
          <mxGeometry x="372" y="250" width="44" height="26" as="geometry" />
        </mxCell>
        <mxCell id="59p0AvyfdVepsQXnpc3s-125" style="edgeStyle=orthogonalEdgeStyle;rounded=0;orthogonalLoop=1;jettySize=auto;html=1;" parent="1" source="59p0AvyfdVepsQXnpc3s-126" edge="1">
          <mxGeometry relative="1" as="geometry">
            <mxPoint x="395" y="416.5" as="targetPoint" />
          </mxGeometry>
        </mxCell>
        <mxCell id="59p0AvyfdVepsQXnpc3s-126" value="Mobile phone&amp;nbsp;" style="rounded=0;whiteSpace=wrap;html=1;" parent="1" vertex="1">
          <mxGeometry x="92" y="290" width="141" height="60" as="geometry" />
        </mxCell>
        <mxCell id="59p0AvyfdVepsQXnpc3s-127" value="Device" style="text;html=1;strokeColor=none;fillColor=none;align=center;verticalAlign=middle;whiteSpace=wrap;rounded=0;" parent="1" vertex="1">
          <mxGeometry x="532.5" y="296" width="60" height="30" as="geometry" />
        </mxCell>
        <mxCell id="59p0AvyfdVepsQXnpc3s-128" value="Mobile Number * 10 (10 Digit Number)" style="text;html=1;strokeColor=none;fillColor=none;align=center;verticalAlign=middle;whiteSpace=wrap;rounded=0;" parent="1" vertex="1">
          <mxGeometry x="425" y="337" width="277" height="30" as="geometry" />
        </mxCell>
        <mxCell id="59p0AvyfdVepsQXnpc3s-129" value="Modbus Packets * 5 (8 byte each)" style="text;html=1;strokeColor=none;fillColor=none;align=center;verticalAlign=middle;whiteSpace=wrap;rounded=0;" parent="1" vertex="1">
          <mxGeometry x="425" y="378" width="277" height="30" as="geometry" />
        </mxCell>
        <mxCell id="59p0AvyfdVepsQXnpc3s-130" value="Mqtt Topics*5" style="text;html=1;strokeColor=none;fillColor=none;align=center;verticalAlign=middle;whiteSpace=wrap;rounded=0;" parent="1" vertex="1">
          <mxGeometry x="429" y="412" width="277" height="30" as="geometry" />
        </mxCell>
        <mxCell id="59p0AvyfdVepsQXnpc3s-131" value="Mqtt Auth (UseName and Password) *1" style="text;html=1;strokeColor=none;fillColor=none;align=center;verticalAlign=middle;whiteSpace=wrap;rounded=0;" parent="1" vertex="1">
          <mxGeometry x="429" y="444" width="277" height="30" as="geometry" />
        </mxCell>
        <mxCell id="59p0AvyfdVepsQXnpc3s-132" value="4-20mA Config(High-LowValue) 4 byte *1" style="text;html=1;strokeColor=none;fillColor=none;align=center;verticalAlign=middle;whiteSpace=wrap;rounded=0;" parent="1" vertex="1">
          <mxGeometry x="429" y="474" width="277" height="30" as="geometry" />
        </mxCell>
        <mxCell id="59p0AvyfdVepsQXnpc3s-133" value="" style="rounded=1;whiteSpace=wrap;html=1;" parent="1" vertex="1">
          <mxGeometry x="58" y="367" width="232" height="192" as="geometry" />
        </mxCell>
        <mxCell id="59p0AvyfdVepsQXnpc3s-134" value="Config" style="text;html=1;strokeColor=none;fillColor=none;align=center;verticalAlign=middle;whiteSpace=wrap;rounded=0;" parent="1" vertex="1">
          <mxGeometry x="142" y="374" width="60" height="30" as="geometry" />
        </mxCell>
        <mxCell id="59p0AvyfdVepsQXnpc3s-135" value="Config-pin" style="rounded=1;whiteSpace=wrap;html=1;" parent="1" vertex="1">
          <mxGeometry x="65" y="595" width="241" height="61" as="geometry" />
        </mxCell>
        <mxCell id="59p0AvyfdVepsQXnpc3s-136" value="" style="edgeStyle=orthogonalEdgeStyle;rounded=0;orthogonalLoop=1;jettySize=auto;html=1;" parent="1" source="59p0AvyfdVepsQXnpc3s-137" target="59p0AvyfdVepsQXnpc3s-138" edge="1">
          <mxGeometry relative="1" as="geometry" />
        </mxCell>
        <mxCell id="59p0AvyfdVepsQXnpc3s-137" value="is this MasterNumber" style="rounded=1;whiteSpace=wrap;html=1;" parent="1" vertex="1">
          <mxGeometry x="432" y="597" width="232" height="52" as="geometry" />
        </mxCell>
        <mxCell id="59p0AvyfdVepsQXnpc3s-138" value="It send Config" style="rounded=1;whiteSpace=wrap;html=1;" parent="1" vertex="1">
          <mxGeometry x="333" y="695" width="232" height="61" as="geometry" />
        </mxCell>
        <mxCell id="59p0AvyfdVepsQXnpc3s-139" value="" style="rounded=1;whiteSpace=wrap;html=1;" parent="1" vertex="1">
          <mxGeometry x="331" y="759" width="232" height="291" as="geometry" />
        </mxCell>
        <mxCell id="59p0AvyfdVepsQXnpc3s-140" value="enter number&amp;nbsp;" style="text;html=1;strokeColor=none;fillColor=none;align=center;verticalAlign=middle;whiteSpace=wrap;rounded=0;" parent="1" vertex="1">
          <mxGeometry x="351" y="779" width="159" height="30" as="geometry" />
        </mxCell>
        <mxCell id="59p0AvyfdVepsQXnpc3s-141" value="1. Add Mobile Numer" style="text;html=1;strokeColor=none;fillColor=none;align=center;verticalAlign=middle;whiteSpace=wrap;rounded=0;" parent="1" vertex="1">
          <mxGeometry x="347" y="813" width="159" height="30" as="geometry" />
        </mxCell>
        <mxCell id="59p0AvyfdVepsQXnpc3s-142" value="2. Delete Mobile Numer" style="text;html=1;strokeColor=none;fillColor=none;align=center;verticalAlign=middle;whiteSpace=wrap;rounded=0;" parent="1" vertex="1">
          <mxGeometry x="353" y="843" width="159" height="30" as="geometry" />
        </mxCell>
        <mxCell id="59p0AvyfdVepsQXnpc3s-143" value="3. List&#39;s Mobile Numer" style="text;html=1;strokeColor=none;fillColor=none;align=center;verticalAlign=middle;whiteSpace=wrap;rounded=0;" parent="1" vertex="1">
          <mxGeometry x="351" y="866" width="159" height="30" as="geometry" />
        </mxCell>
        <mxCell id="59p0AvyfdVepsQXnpc3s-144" value="4. Add Modbus master Packet&amp;nbsp;" style="text;html=1;strokeColor=none;fillColor=none;align=center;verticalAlign=middle;whiteSpace=wrap;rounded=0;" parent="1" vertex="1">
          <mxGeometry x="357" y="891" width="159" height="30" as="geometry" />
        </mxCell>
        <mxCell id="59p0AvyfdVepsQXnpc3s-145" value="6. Save Mqtt Topic" style="text;html=1;strokeColor=none;fillColor=none;align=center;verticalAlign=middle;whiteSpace=wrap;rounded=0;" parent="1" vertex="1">
          <mxGeometry x="357" y="925" width="159" height="30" as="geometry" />
        </mxCell>
        <mxCell id="59p0AvyfdVepsQXnpc3s-146" value="7. Save Mqtt Auth" style="text;html=1;strokeColor=none;fillColor=none;align=center;verticalAlign=middle;whiteSpace=wrap;rounded=0;" parent="1" vertex="1">
          <mxGeometry x="353" y="955" width="159" height="30" as="geometry" />
        </mxCell>
        <mxCell id="59p0AvyfdVepsQXnpc3s-147" value="8. Config Analog Sensor(4-20mA)" style="text;html=1;strokeColor=none;fillColor=none;align=center;verticalAlign=middle;whiteSpace=wrap;rounded=0;" parent="1" vertex="1">
          <mxGeometry x="357" y="985" width="159" height="30" as="geometry" />
        </mxCell>
        <mxCell id="59p0AvyfdVepsQXnpc3s-148" value="" style="edgeStyle=orthogonalEdgeStyle;rounded=0;orthogonalLoop=1;jettySize=auto;html=1;" parent="1" source="59p0AvyfdVepsQXnpc3s-149" target="59p0AvyfdVepsQXnpc3s-150" edge="1">
          <mxGeometry relative="1" as="geometry" />
        </mxCell>
        <mxCell id="59p0AvyfdVepsQXnpc3s-149" value="1" style="rounded=1;whiteSpace=wrap;html=1;" parent="1" vertex="1">
          <mxGeometry x="58" y="1055" width="241" height="61" as="geometry" />
        </mxCell>
        <mxCell id="59p0AvyfdVepsQXnpc3s-150" value="1" style="rounded=1;whiteSpace=wrap;html=1;" parent="1" vertex="1">
          <mxGeometry x="336" y="1063" width="241" height="61" as="geometry" />
        </mxCell>
        <mxCell id="59p0AvyfdVepsQXnpc3s-151" value="" style="rounded=1;whiteSpace=wrap;html=1;" parent="1" vertex="1">
          <mxGeometry x="336" y="1147" width="232" height="77" as="geometry" />
        </mxCell>
        <mxCell id="59p0AvyfdVepsQXnpc3s-152" value="Enter the number You want to add&amp;nbsp;" style="text;html=1;strokeColor=none;fillColor=none;align=center;verticalAlign=middle;whiteSpace=wrap;rounded=0;" parent="1" vertex="1">
          <mxGeometry x="372.5" y="1170.5" width="159" height="30" as="geometry" />
        </mxCell>
        <mxCell id="59p0AvyfdVepsQXnpc3s-153" value="9876543456788" style="rounded=1;whiteSpace=wrap;html=1;" parent="1" vertex="1">
          <mxGeometry x="58" y="1232" width="232" height="77" as="geometry" />
        </mxCell>
        <mxCell id="59p0AvyfdVepsQXnpc3s-154" value="9876543456788" style="rounded=1;whiteSpace=wrap;html=1;" parent="1" vertex="1">
          <mxGeometry x="335" y="1235" width="232" height="77" as="geometry" />
        </mxCell>
        <mxCell id="59p0AvyfdVepsQXnpc3s-155" value="9876543456788 this number is added to 5th position" style="rounded=1;whiteSpace=wrap;html=1;" parent="1" vertex="1">
          <mxGeometry x="333" y="1328" width="232" height="77" as="geometry" />
        </mxCell>
        <mxCell id="59p0AvyfdVepsQXnpc3s-156" value="Hello" style="rounded=1;whiteSpace=wrap;html=1;" parent="1" vertex="1">
          <mxGeometry x="323" y="1445" width="232" height="77" as="geometry" />
        </mxCell>
        <mxCell id="59p0AvyfdVepsQXnpc3s-157" value="Can we connect over linkedin" style="rounded=1;whiteSpace=wrap;html=1;" parent="1" vertex="1">
          <mxGeometry x="307" y="1554" width="232" height="77" as="geometry" />
        </mxCell>
        <mxCell id="J2YRhRowR8hO2LU_zufJ-3" style="edgeStyle=orthogonalEdgeStyle;rounded=0;orthogonalLoop=1;jettySize=auto;html=1;entryX=0.5;entryY=0;entryDx=0;entryDy=0;" edge="1" parent="1" source="J2YRhRowR8hO2LU_zufJ-1" target="J2YRhRowR8hO2LU_zufJ-2">
          <mxGeometry relative="1" as="geometry">
            <mxPoint x="1020" y="148" as="targetPoint" />
          </mxGeometry>
        </mxCell>
        <mxCell id="J2YRhRowR8hO2LU_zufJ-1" value="Start" style="rounded=1;whiteSpace=wrap;html=1;" vertex="1" parent="1">
          <mxGeometry x="960" y="50" width="120" height="60" as="geometry" />
        </mxCell>
        <mxCell id="J2YRhRowR8hO2LU_zufJ-4" value="No" style="edgeStyle=orthogonalEdgeStyle;rounded=0;orthogonalLoop=1;jettySize=auto;html=1;exitX=0;exitY=0.5;exitDx=0;exitDy=0;" edge="1" parent="1" source="J2YRhRowR8hO2LU_zufJ-2">
          <mxGeometry relative="1" as="geometry">
            <mxPoint x="1020" y="128" as="targetPoint" />
            <Array as="points">
              <mxPoint x="940" y="200" />
              <mxPoint x="940" y="128" />
            </Array>
          </mxGeometry>
        </mxCell>
        <mxCell id="J2YRhRowR8hO2LU_zufJ-6" value="Yes" style="edgeStyle=orthogonalEdgeStyle;rounded=0;orthogonalLoop=1;jettySize=auto;html=1;" edge="1" parent="1" source="J2YRhRowR8hO2LU_zufJ-2" target="J2YRhRowR8hO2LU_zufJ-5">
          <mxGeometry relative="1" as="geometry" />
        </mxCell>
        <mxCell id="J2YRhRowR8hO2LU_zufJ-2" value="Is_receive_sms?" style="rhombus;whiteSpace=wrap;html=1;" vertex="1" parent="1">
          <mxGeometry x="970" y="154" width="100" height="101" as="geometry" />
        </mxCell>
        <mxCell id="J2YRhRowR8hO2LU_zufJ-8" value="No" style="edgeStyle=orthogonalEdgeStyle;rounded=0;orthogonalLoop=1;jettySize=auto;html=1;" edge="1" parent="1" source="J2YRhRowR8hO2LU_zufJ-5" target="J2YRhRowR8hO2LU_zufJ-7">
          <mxGeometry relative="1" as="geometry" />
        </mxCell>
        <mxCell id="J2YRhRowR8hO2LU_zufJ-10" value="Yes" style="edgeStyle=orthogonalEdgeStyle;rounded=0;orthogonalLoop=1;jettySize=auto;html=1;entryX=0.5;entryY=0;entryDx=0;entryDy=0;" edge="1" parent="1" source="J2YRhRowR8hO2LU_zufJ-5" target="J2YRhRowR8hO2LU_zufJ-9">
          <mxGeometry relative="1" as="geometry" />
        </mxCell>
        <mxCell id="J2YRhRowR8hO2LU_zufJ-5" value="Is_master_number?" style="rhombus;whiteSpace=wrap;html=1;" vertex="1" parent="1">
          <mxGeometry x="960" y="295" width="120" height="115" as="geometry" />
        </mxCell>
        <mxCell id="J2YRhRowR8hO2LU_zufJ-11" value="Yes" style="edgeStyle=orthogonalEdgeStyle;rounded=0;orthogonalLoop=1;jettySize=auto;html=1;entryX=0.5;entryY=0;entryDx=0;entryDy=0;" edge="1" parent="1" source="J2YRhRowR8hO2LU_zufJ-7" target="J2YRhRowR8hO2LU_zufJ-12">
          <mxGeometry relative="1" as="geometry">
            <mxPoint x="1050" y="363" as="targetPoint" />
            <Array as="points">
              <mxPoint x="1190" y="383" />
              <mxPoint x="1190" y="383" />
            </Array>
          </mxGeometry>
        </mxCell>
        <mxCell id="J2YRhRowR8hO2LU_zufJ-14" value="No" style="edgeStyle=orthogonalEdgeStyle;rounded=0;orthogonalLoop=1;jettySize=auto;html=1;" edge="1" parent="1" source="J2YRhRowR8hO2LU_zufJ-7">
          <mxGeometry relative="1" as="geometry">
            <mxPoint x="1020" y="128" as="targetPoint" />
            <Array as="points">
              <mxPoint x="1215" y="128" />
            </Array>
          </mxGeometry>
        </mxCell>
        <mxCell id="J2YRhRowR8hO2LU_zufJ-7" value="Is_master_empty?" style="rhombus;whiteSpace=wrap;html=1;" vertex="1" parent="1">
          <mxGeometry x="1150" y="299" width="110" height="105" as="geometry" />
        </mxCell>
        <mxCell id="J2YRhRowR8hO2LU_zufJ-16" style="edgeStyle=orthogonalEdgeStyle;rounded=0;orthogonalLoop=1;jettySize=auto;html=1;entryX=0.5;entryY=0;entryDx=0;entryDy=0;" edge="1" parent="1" source="J2YRhRowR8hO2LU_zufJ-9" target="J2YRhRowR8hO2LU_zufJ-15">
          <mxGeometry relative="1" as="geometry" />
        </mxCell>
        <mxCell id="J2YRhRowR8hO2LU_zufJ-9" value="Process configure sms" style="rounded=0;whiteSpace=wrap;html=1;" vertex="1" parent="1">
          <mxGeometry x="960" y="544" width="120" height="60" as="geometry" />
        </mxCell>
        <mxCell id="J2YRhRowR8hO2LU_zufJ-13" style="edgeStyle=orthogonalEdgeStyle;rounded=0;orthogonalLoop=1;jettySize=auto;html=1;" edge="1" parent="1" source="J2YRhRowR8hO2LU_zufJ-12">
          <mxGeometry relative="1" as="geometry">
            <mxPoint x="1020" y="494" as="targetPoint" />
          </mxGeometry>
        </mxCell>
        <mxCell id="J2YRhRowR8hO2LU_zufJ-12" value="Add master number" style="rounded=0;whiteSpace=wrap;html=1;" vertex="1" parent="1">
          <mxGeometry x="1145" y="464" width="120" height="60" as="geometry" />
        </mxCell>
        <mxCell id="J2YRhRowR8hO2LU_zufJ-15" value="End" style="rounded=1;whiteSpace=wrap;html=1;" vertex="1" parent="1">
          <mxGeometry x="960" y="640" width="120" height="60" as="geometry" />
        </mxCell>
        <mxCell id="J2YRhRowR8hO2LU_zufJ-18" value="Main Process" style="text;html=1;strokeColor=none;fillColor=none;align=center;verticalAlign=middle;whiteSpace=wrap;rounded=0;" vertex="1" parent="1">
          <mxGeometry x="1035" y="12" width="90" height="30" as="geometry" />
        </mxCell>
        <mxCell id="J2YRhRowR8hO2LU_zufJ-21" style="edgeStyle=orthogonalEdgeStyle;rounded=0;orthogonalLoop=1;jettySize=auto;html=1;entryX=0.5;entryY=0;entryDx=0;entryDy=0;" edge="1" parent="1" source="J2YRhRowR8hO2LU_zufJ-19" target="J2YRhRowR8hO2LU_zufJ-20">
          <mxGeometry relative="1" as="geometry" />
        </mxCell>
        <mxCell id="J2YRhRowR8hO2LU_zufJ-19" value="Start Process configure sms" style="rounded=1;whiteSpace=wrap;html=1;" vertex="1" parent="1">
          <mxGeometry x="1550" y="50" width="120" height="60" as="geometry" />
        </mxCell>
        <mxCell id="J2YRhRowR8hO2LU_zufJ-25" value="Yes" style="edgeStyle=orthogonalEdgeStyle;rounded=0;orthogonalLoop=1;jettySize=auto;html=1;entryX=0;entryY=0.5;entryDx=0;entryDy=0;" edge="1" parent="1" source="J2YRhRowR8hO2LU_zufJ-20" target="J2YRhRowR8hO2LU_zufJ-24">
          <mxGeometry relative="1" as="geometry" />
        </mxCell>
        <mxCell id="J2YRhRowR8hO2LU_zufJ-29" value="No" style="edgeStyle=orthogonalEdgeStyle;rounded=0;orthogonalLoop=1;jettySize=auto;html=1;entryX=0.5;entryY=0;entryDx=0;entryDy=0;" edge="1" parent="1" source="J2YRhRowR8hO2LU_zufJ-20" target="J2YRhRowR8hO2LU_zufJ-22">
          <mxGeometry relative="1" as="geometry" />
        </mxCell>
        <mxCell id="J2YRhRowR8hO2LU_zufJ-20" value="Is_ready_state?" style="rhombus;whiteSpace=wrap;html=1;" vertex="1" parent="1">
          <mxGeometry x="1555" y="161.5" width="110" height="112" as="geometry" />
        </mxCell>
        <mxCell id="J2YRhRowR8hO2LU_zufJ-31" value="Yes" style="edgeStyle=orthogonalEdgeStyle;rounded=0;orthogonalLoop=1;jettySize=auto;html=1;entryX=0;entryY=0.5;entryDx=0;entryDy=0;" edge="1" parent="1" source="J2YRhRowR8hO2LU_zufJ-22" target="J2YRhRowR8hO2LU_zufJ-30">
          <mxGeometry relative="1" as="geometry" />
        </mxCell>
        <mxCell id="J2YRhRowR8hO2LU_zufJ-35" value="No" style="edgeStyle=orthogonalEdgeStyle;rounded=0;orthogonalLoop=1;jettySize=auto;html=1;" edge="1" parent="1" source="J2YRhRowR8hO2LU_zufJ-22" target="J2YRhRowR8hO2LU_zufJ-34">
          <mxGeometry relative="1" as="geometry" />
        </mxCell>
        <mxCell id="J2YRhRowR8hO2LU_zufJ-22" value="Is_selection_state?" style="rhombus;whiteSpace=wrap;html=1;" vertex="1" parent="1">
          <mxGeometry x="1555" y="320" width="110" height="112" as="geometry" />
        </mxCell>
        <mxCell id="J2YRhRowR8hO2LU_zufJ-27" value="Yes" style="edgeStyle=orthogonalEdgeStyle;rounded=0;orthogonalLoop=1;jettySize=auto;html=1;entryX=0;entryY=0.5;entryDx=0;entryDy=0;" edge="1" parent="1" source="J2YRhRowR8hO2LU_zufJ-24" target="J2YRhRowR8hO2LU_zufJ-26">
          <mxGeometry relative="1" as="geometry" />
        </mxCell>
        <mxCell id="J2YRhRowR8hO2LU_zufJ-28" value="No" style="edgeStyle=orthogonalEdgeStyle;rounded=0;orthogonalLoop=1;jettySize=auto;html=1;" edge="1" parent="1" source="J2YRhRowR8hO2LU_zufJ-24">
          <mxGeometry relative="1" as="geometry">
            <mxPoint x="1610" y="120" as="targetPoint" />
            <Array as="points">
              <mxPoint x="1805" y="120" />
            </Array>
          </mxGeometry>
        </mxCell>
        <mxCell id="J2YRhRowR8hO2LU_zufJ-24" value="Is_configure_msg?" style="rhombus;whiteSpace=wrap;html=1;" vertex="1" parent="1">
          <mxGeometry x="1750" y="161.5" width="110" height="112" as="geometry" />
        </mxCell>
        <mxCell id="J2YRhRowR8hO2LU_zufJ-45" style="edgeStyle=orthogonalEdgeStyle;rounded=0;orthogonalLoop=1;jettySize=auto;html=1;" edge="1" parent="1" source="J2YRhRowR8hO2LU_zufJ-26">
          <mxGeometry relative="1" as="geometry">
            <mxPoint x="1610" y="770" as="targetPoint" />
            <Array as="points">
              <mxPoint x="2120" y="218" />
              <mxPoint x="2120" y="771" />
            </Array>
          </mxGeometry>
        </mxCell>
        <mxCell id="J2YRhRowR8hO2LU_zufJ-26" value="Send configure list &amp;amp;&lt;br&gt;Update to selection state" style="rounded=0;whiteSpace=wrap;html=1;" vertex="1" parent="1">
          <mxGeometry x="1947.5" y="187.5" width="120" height="60" as="geometry" />
        </mxCell>
        <mxCell id="J2YRhRowR8hO2LU_zufJ-33" style="edgeStyle=orthogonalEdgeStyle;rounded=0;orthogonalLoop=1;jettySize=auto;html=1;entryX=0;entryY=0.5;entryDx=0;entryDy=0;" edge="1" parent="1" source="J2YRhRowR8hO2LU_zufJ-30" target="J2YRhRowR8hO2LU_zufJ-32">
          <mxGeometry relative="1" as="geometry" />
        </mxCell>
        <mxCell id="J2YRhRowR8hO2LU_zufJ-30" value="Update the appropriate state" style="rounded=0;whiteSpace=wrap;html=1;" vertex="1" parent="1">
          <mxGeometry x="1750" y="346" width="120" height="60" as="geometry" />
        </mxCell>
        <mxCell id="J2YRhRowR8hO2LU_zufJ-46" style="edgeStyle=orthogonalEdgeStyle;rounded=0;orthogonalLoop=1;jettySize=auto;html=1;" edge="1" parent="1" source="J2YRhRowR8hO2LU_zufJ-32">
          <mxGeometry relative="1" as="geometry">
            <mxPoint x="2120" y="376" as="targetPoint" />
          </mxGeometry>
        </mxCell>
        <mxCell id="J2YRhRowR8hO2LU_zufJ-32" value="Send the option guide" style="rounded=0;whiteSpace=wrap;html=1;" vertex="1" parent="1">
          <mxGeometry x="1947.5" y="346" width="120" height="60" as="geometry" />
        </mxCell>
        <mxCell id="J2YRhRowR8hO2LU_zufJ-37" value="Yes" style="edgeStyle=orthogonalEdgeStyle;rounded=0;orthogonalLoop=1;jettySize=auto;html=1;entryX=0;entryY=0.5;entryDx=0;entryDy=0;" edge="1" parent="1" source="J2YRhRowR8hO2LU_zufJ-34" target="J2YRhRowR8hO2LU_zufJ-36">
          <mxGeometry relative="1" as="geometry" />
        </mxCell>
        <mxCell id="J2YRhRowR8hO2LU_zufJ-34" value="Is_config_1_state?" style="rhombus;whiteSpace=wrap;html=1;" vertex="1" parent="1">
          <mxGeometry x="1555" y="474" width="110" height="112" as="geometry" />
        </mxCell>
        <mxCell id="J2YRhRowR8hO2LU_zufJ-47" style="edgeStyle=orthogonalEdgeStyle;rounded=0;orthogonalLoop=1;jettySize=auto;html=1;" edge="1" parent="1" source="J2YRhRowR8hO2LU_zufJ-36">
          <mxGeometry relative="1" as="geometry">
            <mxPoint x="2120" y="530" as="targetPoint" />
          </mxGeometry>
        </mxCell>
        <mxCell id="J2YRhRowR8hO2LU_zufJ-36" value="Process config 1" style="rounded=0;whiteSpace=wrap;html=1;" vertex="1" parent="1">
          <mxGeometry x="1749" y="500" width="120" height="60" as="geometry" />
        </mxCell>
        <mxCell id="J2YRhRowR8hO2LU_zufJ-44" style="edgeStyle=orthogonalEdgeStyle;rounded=0;orthogonalLoop=1;jettySize=auto;html=1;entryX=0.5;entryY=0;entryDx=0;entryDy=0;" edge="1" parent="1" source="J2YRhRowR8hO2LU_zufJ-39" target="J2YRhRowR8hO2LU_zufJ-43">
          <mxGeometry relative="1" as="geometry" />
        </mxCell>
        <mxCell id="J2YRhRowR8hO2LU_zufJ-39" value="Is_config_N_state?" style="rhombus;whiteSpace=wrap;html=1;" vertex="1" parent="1">
          <mxGeometry x="1555" y="620" width="110" height="112" as="geometry" />
        </mxCell>
        <mxCell id="J2YRhRowR8hO2LU_zufJ-40" value="No" style="endArrow=none;dashed=1;html=1;dashPattern=1 3;strokeWidth=2;rounded=0;entryX=0.5;entryY=1;entryDx=0;entryDy=0;exitX=0.5;exitY=0;exitDx=0;exitDy=0;" edge="1" parent="1" source="J2YRhRowR8hO2LU_zufJ-39" target="J2YRhRowR8hO2LU_zufJ-34">
          <mxGeometry width="50" height="50" relative="1" as="geometry">
            <mxPoint x="1510" y="590" as="sourcePoint" />
            <mxPoint x="1560" y="540" as="targetPoint" />
          </mxGeometry>
        </mxCell>
        <mxCell id="J2YRhRowR8hO2LU_zufJ-48" style="edgeStyle=orthogonalEdgeStyle;rounded=0;orthogonalLoop=1;jettySize=auto;html=1;" edge="1" parent="1" source="J2YRhRowR8hO2LU_zufJ-41">
          <mxGeometry relative="1" as="geometry">
            <mxPoint x="2120" y="676" as="targetPoint" />
          </mxGeometry>
        </mxCell>
        <mxCell id="J2YRhRowR8hO2LU_zufJ-41" value="Process config N" style="rounded=0;whiteSpace=wrap;html=1;" vertex="1" parent="1">
          <mxGeometry x="1750" y="646" width="120" height="60" as="geometry" />
        </mxCell>
        <mxCell id="J2YRhRowR8hO2LU_zufJ-42" value="Yes" style="endArrow=none;dashed=1;html=1;dashPattern=1 3;strokeWidth=2;rounded=0;entryX=0;entryY=0.5;entryDx=0;entryDy=0;exitX=1;exitY=0.5;exitDx=0;exitDy=0;" edge="1" parent="1" source="J2YRhRowR8hO2LU_zufJ-39" target="J2YRhRowR8hO2LU_zufJ-41">
          <mxGeometry width="50" height="50" relative="1" as="geometry">
            <mxPoint x="1510" y="590" as="sourcePoint" />
            <mxPoint x="1560" y="540" as="targetPoint" />
          </mxGeometry>
        </mxCell>
        <mxCell id="J2YRhRowR8hO2LU_zufJ-43" value="End" style="rounded=1;whiteSpace=wrap;html=1;" vertex="1" parent="1">
          <mxGeometry x="1550" y="809" width="120" height="60" as="geometry" />
        </mxCell>
        <mxCell id="J2YRhRowR8hO2LU_zufJ-52" value="Process configure sms" style="text;html=1;strokeColor=none;fillColor=none;align=center;verticalAlign=middle;whiteSpace=wrap;rounded=0;" vertex="1" parent="1">
          <mxGeometry x="1800" y="12" width="130" height="30" as="geometry" />
        </mxCell>
        <mxCell id="J2YRhRowR8hO2LU_zufJ-55" style="edgeStyle=orthogonalEdgeStyle;rounded=0;orthogonalLoop=1;jettySize=auto;html=1;entryX=0;entryY=0.5;entryDx=0;entryDy=0;exitX=0;exitY=0.5;exitDx=0;exitDy=0;curved=1;" edge="1" parent="1" source="J2YRhRowR8hO2LU_zufJ-53" target="J2YRhRowR8hO2LU_zufJ-54">
          <mxGeometry relative="1" as="geometry">
            <Array as="points">
              <mxPoint x="870" y="1070" />
              <mxPoint x="870" y="1211" />
            </Array>
          </mxGeometry>
        </mxCell>
        <mxCell id="J2YRhRowR8hO2LU_zufJ-56" value="Started module" style="edgeLabel;html=1;align=center;verticalAlign=middle;resizable=0;points=[];" vertex="1" connectable="0" parent="J2YRhRowR8hO2LU_zufJ-55">
          <mxGeometry x="-0.1471" y="1" relative="1" as="geometry">
            <mxPoint as="offset" />
          </mxGeometry>
        </mxCell>
        <mxCell id="J2YRhRowR8hO2LU_zufJ-53" value="Begining state" style="ellipse;whiteSpace=wrap;html=1;" vertex="1" parent="1">
          <mxGeometry x="920" y="1030" width="120" height="80" as="geometry" />
        </mxCell>
        <mxCell id="J2YRhRowR8hO2LU_zufJ-58" style="edgeStyle=orthogonalEdgeStyle;curved=1;rounded=0;orthogonalLoop=1;jettySize=auto;html=1;entryX=0;entryY=0.5;entryDx=0;entryDy=0;exitX=0;exitY=0.5;exitDx=0;exitDy=0;" edge="1" parent="1" source="J2YRhRowR8hO2LU_zufJ-54" target="J2YRhRowR8hO2LU_zufJ-57">
          <mxGeometry relative="1" as="geometry">
            <Array as="points">
              <mxPoint x="870" y="1211" />
              <mxPoint x="870" y="1365" />
            </Array>
          </mxGeometry>
        </mxCell>
        <mxCell id="J2YRhRowR8hO2LU_zufJ-59" value="Receive configure signal" style="edgeLabel;html=1;align=center;verticalAlign=middle;resizable=0;points=[];" vertex="1" connectable="0" parent="J2YRhRowR8hO2LU_zufJ-58">
          <mxGeometry x="0.1059" relative="1" as="geometry">
            <mxPoint as="offset" />
          </mxGeometry>
        </mxCell>
        <mxCell id="J2YRhRowR8hO2LU_zufJ-54" value="Readystate" style="ellipse;whiteSpace=wrap;html=1;" vertex="1" parent="1">
          <mxGeometry x="920" y="1170.5" width="120" height="80" as="geometry" />
        </mxCell>
        <mxCell id="J2YRhRowR8hO2LU_zufJ-61" style="edgeStyle=orthogonalEdgeStyle;curved=1;rounded=0;orthogonalLoop=1;jettySize=auto;html=1;entryX=0;entryY=0.5;entryDx=0;entryDy=0;" edge="1" parent="1" source="J2YRhRowR8hO2LU_zufJ-57" target="J2YRhRowR8hO2LU_zufJ-60">
          <mxGeometry relative="1" as="geometry">
            <Array as="points">
              <mxPoint x="1080" y="1365" />
              <mxPoint x="1080" y="1070" />
            </Array>
          </mxGeometry>
        </mxCell>
        <mxCell id="J2YRhRowR8hO2LU_zufJ-62" value="Receive option 1" style="edgeLabel;html=1;align=center;verticalAlign=middle;resizable=0;points=[];" vertex="1" connectable="0" parent="J2YRhRowR8hO2LU_zufJ-61">
          <mxGeometry x="-0.2719" y="7" relative="1" as="geometry">
            <mxPoint as="offset" />
          </mxGeometry>
        </mxCell>
        <mxCell id="J2YRhRowR8hO2LU_zufJ-72" style="edgeStyle=orthogonalEdgeStyle;curved=1;rounded=0;orthogonalLoop=1;jettySize=auto;html=1;entryX=0;entryY=0.5;entryDx=0;entryDy=0;" edge="1" parent="1" source="J2YRhRowR8hO2LU_zufJ-57" target="J2YRhRowR8hO2LU_zufJ-71">
          <mxGeometry relative="1" as="geometry">
            <Array as="points">
              <mxPoint x="1150" y="1365" />
              <mxPoint x="1150" y="1209" />
            </Array>
          </mxGeometry>
        </mxCell>
        <mxCell id="J2YRhRowR8hO2LU_zufJ-73" value="Receive option 2" style="edgeLabel;html=1;align=center;verticalAlign=middle;resizable=0;points=[];" vertex="1" connectable="0" parent="J2YRhRowR8hO2LU_zufJ-72">
          <mxGeometry x="0.1438" y="-4" relative="1" as="geometry">
            <mxPoint as="offset" />
          </mxGeometry>
        </mxCell>
        <mxCell id="J2YRhRowR8hO2LU_zufJ-77" style="edgeStyle=orthogonalEdgeStyle;curved=1;rounded=0;orthogonalLoop=1;jettySize=auto;html=1;" edge="1" parent="1" source="J2YRhRowR8hO2LU_zufJ-57" target="J2YRhRowR8hO2LU_zufJ-76">
          <mxGeometry relative="1" as="geometry" />
        </mxCell>
        <mxCell id="J2YRhRowR8hO2LU_zufJ-78" value="Receive option 3" style="edgeLabel;html=1;align=center;verticalAlign=middle;resizable=0;points=[];" vertex="1" connectable="0" parent="J2YRhRowR8hO2LU_zufJ-77">
          <mxGeometry x="0.1489" y="2" relative="1" as="geometry">
            <mxPoint as="offset" />
          </mxGeometry>
        </mxCell>
        <mxCell id="J2YRhRowR8hO2LU_zufJ-80" style="edgeStyle=orthogonalEdgeStyle;curved=1;rounded=0;orthogonalLoop=1;jettySize=auto;html=1;entryX=0;entryY=0.5;entryDx=0;entryDy=0;" edge="1" parent="1" source="J2YRhRowR8hO2LU_zufJ-57" target="J2YRhRowR8hO2LU_zufJ-79">
          <mxGeometry relative="1" as="geometry" />
        </mxCell>
        <mxCell id="J2YRhRowR8hO2LU_zufJ-81" value="TBD" style="edgeLabel;html=1;align=center;verticalAlign=middle;resizable=0;points=[];" vertex="1" connectable="0" parent="J2YRhRowR8hO2LU_zufJ-80">
          <mxGeometry x="0.1797" y="6" relative="1" as="geometry">
            <mxPoint y="1" as="offset" />
          </mxGeometry>
        </mxCell>
        <mxCell id="J2YRhRowR8hO2LU_zufJ-57" value="Selection state" style="ellipse;whiteSpace=wrap;html=1;" vertex="1" parent="1">
          <mxGeometry x="920" y="1325" width="120" height="80" as="geometry" />
        </mxCell>
        <mxCell id="J2YRhRowR8hO2LU_zufJ-83" value="Exit" style="edgeStyle=orthogonalEdgeStyle;curved=1;rounded=0;orthogonalLoop=1;jettySize=auto;html=1;entryX=0;entryY=0.5;entryDx=0;entryDy=0;" edge="1" parent="1" source="J2YRhRowR8hO2LU_zufJ-60" target="J2YRhRowR8hO2LU_zufJ-82">
          <mxGeometry relative="1" as="geometry" />
        </mxCell>
        <mxCell id="J2YRhRowR8hO2LU_zufJ-60" value="Adding phone number state" style="ellipse;whiteSpace=wrap;html=1;" vertex="1" parent="1">
          <mxGeometry x="1190" y="1030" width="120" height="80" as="geometry" />
        </mxCell>
        <mxCell id="J2YRhRowR8hO2LU_zufJ-88" value="Exit" style="edgeStyle=orthogonalEdgeStyle;curved=1;rounded=0;orthogonalLoop=1;jettySize=auto;html=1;entryX=0;entryY=0.5;entryDx=0;entryDy=0;" edge="1" parent="1" source="J2YRhRowR8hO2LU_zufJ-71" target="J2YRhRowR8hO2LU_zufJ-87">
          <mxGeometry relative="1" as="geometry" />
        </mxCell>
        <mxCell id="J2YRhRowR8hO2LU_zufJ-71" value="Delete phone number state" style="ellipse;whiteSpace=wrap;html=1;" vertex="1" parent="1">
          <mxGeometry x="1190" y="1169" width="120" height="80" as="geometry" />
        </mxCell>
        <mxCell id="J2YRhRowR8hO2LU_zufJ-94" value="Exit" style="edgeStyle=orthogonalEdgeStyle;curved=1;rounded=0;orthogonalLoop=1;jettySize=auto;html=1;entryX=0;entryY=0.5;entryDx=0;entryDy=0;" edge="1" parent="1" source="J2YRhRowR8hO2LU_zufJ-76" target="J2YRhRowR8hO2LU_zufJ-93">
          <mxGeometry relative="1" as="geometry" />
        </mxCell>
        <mxCell id="J2YRhRowR8hO2LU_zufJ-76" value="List out phone number state" style="ellipse;whiteSpace=wrap;html=1;" vertex="1" parent="1">
          <mxGeometry x="1181" y="1325" width="120" height="80" as="geometry" />
        </mxCell>
        <mxCell id="J2YRhRowR8hO2LU_zufJ-79" value="TBD" style="ellipse;whiteSpace=wrap;html=1;" vertex="1" parent="1">
          <mxGeometry x="1181" y="1490" width="120" height="80" as="geometry" />
        </mxCell>
        <mxCell id="J2YRhRowR8hO2LU_zufJ-82" value="" style="ellipse;whiteSpace=wrap;html=1;aspect=fixed;" vertex="1" parent="1">
          <mxGeometry x="1360" y="1060" width="20" height="20" as="geometry" />
        </mxCell>
        <mxCell id="J2YRhRowR8hO2LU_zufJ-87" value="" style="ellipse;whiteSpace=wrap;html=1;aspect=fixed;" vertex="1" parent="1">
          <mxGeometry x="1360" y="1199" width="20" height="20" as="geometry" />
        </mxCell>
        <mxCell id="J2YRhRowR8hO2LU_zufJ-93" value="" style="ellipse;whiteSpace=wrap;html=1;aspect=fixed;" vertex="1" parent="1">
          <mxGeometry x="1360" y="1355" width="20" height="20" as="geometry" />
        </mxCell>
        <mxCell id="J2YRhRowR8hO2LU_zufJ-99" value="" style="ellipse;whiteSpace=wrap;html=1;aspect=fixed;" vertex="1" parent="1">
          <mxGeometry x="910" y="950" width="20" height="20" as="geometry" />
        </mxCell>
        <mxCell id="J2YRhRowR8hO2LU_zufJ-100" value="Notation:" style="text;html=1;strokeColor=none;fillColor=none;align=center;verticalAlign=middle;whiteSpace=wrap;rounded=0;" vertex="1" parent="1">
          <mxGeometry x="840" y="945" width="60" height="30" as="geometry" />
        </mxCell>
        <mxCell id="J2YRhRowR8hO2LU_zufJ-101" value="= Ready state" style="text;html=1;strokeColor=none;fillColor=none;align=center;verticalAlign=middle;whiteSpace=wrap;rounded=0;" vertex="1" parent="1">
          <mxGeometry x="930" y="945" width="100" height="30" as="geometry" />
        </mxCell>
      </root>
    </mxGraphModel>
  </diagram>
</mxfile>
